# xmcd
#
# Track frame offsets: 
#        150
#        15345
#        34792
#        51345
#        69240
#        82075
#        101337
#        118245
#        136280
#        154080
#        168205
#        186557
#        199132
#        219390
#        236267
#        253180
#        271120
#        287087
#
# Disc length: 4014 seconds
#
# Revision: 6
# Processed by: cddbd v1.5.2PL0 Copyright (c) Steve Scherf et al.
# Submitted via: ExactAudioCopyFreeDBPlugin 1.0
#
DISCID=fc0fac12
DTITLE=Freddie King - The Best Of Freddie King - The Shelter Records Y
DTITLE=ears
DYEAR=2000
DGENRE=Blues
TTITLE0=Going Down
TTITLE1=Five Long Years
TTITLE2=Palace Of The King
TTITLE3=Some Old Blues
TTITLE4=Walking By Myself
TTITLE5=Living On The Highway
TTITLE6=I'd Rather Be Blind
TTITLE7=Reconsider Baby
TTITLE8=Big Legged Woman
TTITLE9=Lowdown In Lodi
TTITLE10=Me And My Guitar
TTITLE11=Woman Across The River
TTITLE12=Help Me Through The Day
TTITLE13=Boogie Man
TTITLE14=I'm Ready
TTITLE15=Please Send Me Someone To Love
TTITLE16=Ain't No Big Deal On You
TTITLE17=Guitar Boogie
EXTD=YEAR: 2000
EXTT0=
EXTT1=
EXTT2=
EXTT3=
EXTT4=
EXTT5=
EXTT6=
EXTT7=
EXTT8=
EXTT9=
EXTT10=
EXTT11=
EXTT12=
EXTT13=
EXTT14=
EXTT15=
EXTT16=
EXTT17=
PLAYORDER=
